# xmcd
#
# Track frame offsets: 
#        150
#        9975
#        20869
#        32054
#        42264
#        53655
#        62834
#        73719
#        83713
#        95460
#        105089
#        116911
#        128611
#        140836
#        151955
#        163187
#        173350
#        184038
#        196648
#        209042
#        220393
#        232234
#        243719
#        254238
#        264476
#        276055
#        288505
#        300255
#        312180
#        324452
#
# Disc length: 4492 seconds
#
# Revision: 0
# Processed by: cddbd v1.5.2PL0 Copyright (c) Steve Scherf et al.
# Submitted via: ExactAudioCopyFreeDBPlugin 1.0
#
DISCID=b5118a1e
DTITLE=Drifters - Rockin' and Driftin' - Save The last Dance For Me
DYEAR=1959
DGENRE=Soul
TTITLE0=Moonlight Baby
TTITLE1=Ruby baby
TTITLE2=Drip Drop
TTITLE3=I Gotta Get Myself A Woman
TTITLE4=Fools Fall In Love
TTITLE5=Hynotized
TTITLE6=Yodee Yakee
TTITLE7=I Know
TTITLE8=Soldier Of Fortune
TTITLE9=Drifting Away From You
TTITLE10=Your Promise to Be Mine
TTITLE11=It Was A Tear
TTITLE12=Adorable
TTITLE13=Steamboat
TTITLE14=Save The Last Dance For Me
TTITLE15=I Count The Tears
TTITLE16=Somebody New Dancin' With You
TTITLE17=Jackpot
TTITLE18=No Sweet Lovin'
TTITLE19=Sweets For My Sweet
TTITLE20=Mexican Divorce
TTITLE21=When My Little Girl Is Smiling
TTITLE22=Some Kind Of Wondeful
TTITLE23=Please Stay
TTITLE24=Nobody But Me
TTITLE25=Room Full Of Tears
TTITLE26=She Never Talked To Me That Way
TTITLE27=Up On The Roof
TTITLE28=Hey Senorita
TTITLE29=Lonely Winds
EXTD=
EXTT0=
EXTT1=
EXTT2=
EXTT3=
EXTT4=
EXTT5=
EXTT6=
EXTT7=
EXTT8=
EXTT9=
EXTT10=
EXTT11=
EXTT12=
EXTT13=
EXTT14=
EXTT15=
EXTT16=
EXTT17=
EXTT18=
EXTT19=
EXTT20=
EXTT21=
EXTT22=
EXTT23=
EXTT24=
EXTT25=
EXTT26=
EXTT27=
EXTT28=
EXTT29=
PLAYORDER=
